# xmcd CD database file
#
# Track frame offsets:
#	150
#	19473
#	45899
#	73723
#	95248
#	121048
#	143686
#	164222
#	173597
#	198837
#	224650
#
# Disc length: 3319 seconds
#
# Revision: 0
# Processed by: cddbd v1.5.1PL0 Copyright (c) Steve Scherf et al.
# Submitted via: CDex 1.51
#
DISCID=9f0cf50b
DTITLE=Eric Essex - Somewhere In Alabama
DYEAR=2004
DGENRE=Jazz
TTITLE0=Sweet Tea
TTITLE1=Easy 
TTITLE2=C Side
TTITLE3=Drive Time
TTITLE4=Somewhere In Alabama
TTITLE5=Prevailation
TTITLE6=Like A River
TTITLE7=Nobody Turn Me Round (intro)
TTITLE8=Nobody Turn Me Round
TTITLE9=Sara Smile
TTITLE10=Brown Town
EXTD=YEAR: 2004
EXTT0=
EXTT1=
EXTT2=
EXTT3=
EXTT4=
EXTT5=
EXTT6=
EXTT7=
EXTT8=
EXTT9=
EXTT10=
PLAYORDER=
